<svg width="135" height="60" viewBox="0 0 135 60" fill="none" xmlns="http://www.w3.org/2000/svg">
<g filter="url(#filter0_d_443_1452)">
<path d="M104.38 0.947395C104.203 0.785862 103.995 0.660847 103.77 0.579479C103.544 0.498112 103.304 0.461994 103.065 0.473179C102.825 0.484364 102.59 0.542633 102.373 0.644669C102.156 0.746704 101.961 0.890503 101.799 1.06785C101.638 1.2452 101.513 1.45263 101.432 1.6783C101.35 1.90396 101.314 2.14344 101.325 2.38307C101.336 2.6227 101.395 2.85778 101.497 3.07488C101.599 3.29199 101.743 3.48687 101.92 3.6484L124.429 24.1979L5.82501 24.1979C5.341 24.1979 4.8768 24.3902 4.53455 24.7324C4.19229 25.0747 4.00002 25.5389 4.00002 26.0229C4.00002 26.5069 4.19229 26.9711 4.53455 27.3134C4.8768 27.6556 5.341 27.8479 5.82501 27.8479L124.422 27.8479L101.92 48.3974C101.581 48.7281 101.384 49.1777 101.37 49.6511C101.356 50.1246 101.527 50.5848 101.847 50.9345C102.166 51.2843 102.609 51.4961 103.082 51.5253C103.554 51.5545 104.02 51.3988 104.38 51.0911L129.623 28.045C129.941 27.7566 130.185 27.3974 130.338 26.9965C130.49 26.5957 130.545 26.1645 130.499 25.7382C130.431 25.0709 130.119 24.4523 129.623 24.0008L104.38 0.951054V0.947395Z" fill="#F5F5F5"/>
</g>
<defs>
<filter id="filter0_d_443_1452" x="0" y="0.471191" width="134.515" height="59.0576" filterUnits="userSpaceOnUse" color-interpolation-filters="sRGB">
<feFlood flood-opacity="0" result="BackgroundImageFix"/>
<feColorMatrix in="SourceAlpha" type="matrix" values="0 0 0 0 0 0 0 0 0 0 0 0 0 0 0 0 0 0 127 0" result="hardAlpha"/>
<feOffset dy="4"/>
<feGaussianBlur stdDeviation="2"/>
<feComposite in2="hardAlpha" operator="out"/>
<feColorMatrix type="matrix" values="0 0 0 0 0 0 0 0 0 0 0 0 0 0 0 0 0 0 0.25 0"/>
<feBlend mode="normal" in2="BackgroundImageFix" result="effect1_dropShadow_443_1452"/>
<feBlend mode="normal" in="SourceGraphic" in2="effect1_dropShadow_443_1452" result="shape"/>
</filter>
</defs>
</svg>
